<svg height="454pt" viewBox="-10 0 454 454.268" width="454pt" xmlns="http://www.w3.org/2000/svg"><path d="m290.121094 192.113281c39.550781 0 71.613281-32.0625 71.613281-71.613281s-32.0625-71.613281-71.613281-71.613281c-39.550782 0-71.613282 32.0625-71.613282 71.613281.042969 39.535156 32.082032 71.570312 71.613282 71.613281zm-6.988282-116.84375c0-3.867187 3.136719-7 7-7 3.867188 0 7 3.132813 7 7v49c0 3.863281-3.132812 7-7 7-3.863281 0-7-3.136719-7-7zm0 76c0-3.867187 3.136719-7 7-7 3.867188 0 7 3.132813 7 7v13c0 3.863281-3.132812 7-7 7-3.863281 0-7-3.136719-7-7zm0 0"/><path d="m76.132812 444.234375v-68.964844h-66.136718zm0 0"/><path d="m154.542969 120.441406c.023437-20.132812 4.527343-40.003906 13.191406-58.171875h-167.601563v299h83.539063c3.867187 0 6.460937 3.199219 6.460937 7.066407v85.933593h218v-200.59375c-6.363281.925781-12.789062 1.378907-19.21875 1.351563-74.179687 0-134.371093-60.402344-134.371093-134.585938zm-96.066407 137.828125h115.242188c3.863281 0 7 3.132813 7 7 0 3.863281-3.136719 7-7 7h-115.242188c-3.867187 0-7-3.136719-7-7 0-3.867187 3.132813-7 7-7zm203.328126 72h-203.328126c-3.867187 0-7-3.136719-7-7 0-3.867187 3.132813-7 7-7h203.328126c3.867187 0 7 3.132813 7 7 0 3.863281-3.132813 7-7 7zm0 0"/><path d="m289.082031 241.078125c66.574219 0 120.539063-53.96875 120.539063-120.539063 0-66.570312-53.964844-120.539062-120.539063-120.539062-66.570312 0-120.539062 53.96875-120.539062 120.539062.074219 66.539063 54 120.464844 120.539062 120.539063zm1.039063-206.1875c47.28125 0 85.613281 38.328125 85.613281 85.613281 0 47.28125-38.332031 85.613282-85.613281 85.609375-47.285156 0-85.613282-38.328125-85.613282-85.613281.054688-47.257812 38.351563-85.558594 85.613282-85.609375zm0 0"/><path d="m407.503906 315.414062c-7.058594.042969-13.808594 2.898438-18.75 7.9375-3.402344 3.207032-5.773437 7.355469-6.8125 11.917969h-67.808594v14h67.808594c1.277344 4.363281 3.621094 8.339844 6.8125 11.578125 8.523438 8.460938 21.664063 10.148438 32.050782 4.121094 10.386718-6.027344 15.441406-18.273438 12.328124-29.871094-3.113281-11.597656-13.621093-19.667968-25.628906-19.683594zm0 0"/><path d="m384.367188 400.769531c-3.1875 3.207031-5.527344 7.160157-6.8125 11.5h-20.421876v-30.265625c.09375-1.777344-.558593-3.515625-1.796874-4.796875-1.242188-1.277343-2.960938-1.980469-4.742188-1.9375h-36.460938v14h29v30.492188c0 3.863281 3.601563 6.507812 7.460938 6.507812h26.960938c1.039062 4.582031 3.410156 8.757813 6.8125 12 10.351562 10.320313 27.105468 10.308594 37.4375-.03125 10.332031-10.34375 10.332031-27.097656 0-37.4375-10.332032-10.339843-27.085938-10.355469-37.4375-.03125zm0 0"/><path d="m384.367188 245.433594c-3.199219 3.332031-5.539063 7.394531-6.8125 11.835937h-26.960938c-3.863281 0-7.460938 2.964844-7.460938 6.832031v28.167969h-29v14h36.460938c1.769531.066407 3.484375-.609375 4.730469-1.867187 1.242187-1.261719 1.898437-2.984375 1.808593-4.75v-28.382813h20.421876c1.277343 4.386719 3.617187 8.394531 6.8125 11.664063 10.359374 10.367187 27.15625 10.371094 37.519531.011718 10.363281-10.363281 10.363281-27.160156 0-37.519531-10.363281-10.363281-27.160157-10.355469-37.519531.007813zm0 0"/></svg>