<svg id="Layer_5" enable-background="new 0 0 64 64" height="512" viewBox="0 0 64 64" width="512" xmlns="http://www.w3.org/2000/svg"><path d="m30.821 59.179 1.236-8.65 15.529-15.529h-14.586v-10h18v6.586l2-2v-18.586h-46v2h19c1.654 0 3 1.346 3 3v16c0 1.654-1.346 3-3 3h-19v25c0 .552.448 1 1 1h44c.552 0 1-.448 1-1v-15.586l-13.528 13.528zm2.179-46.179h18v10h-18zm-16 26h2v-2h2v2h2v2h-2v10h-2v-10h-2zm-8 8h2v-10h2v10h2v2h-2v2h-2v-2h-2zm16 12h-16v-2h16zm4 0h-2v-2h2zm0-4h-20v-2h20zm0-4h-2v-6h-2v-2h2v-6h2v6h2v2h-2zm20-2h2v2h-2zm0 4h2v2h-2zm0 4h2v2h-2z"/><path d="m53 4c0-.551-.448-1-1-1h-44c-.552 0-1 .449-1 1v5h46zm-43 3h-2v-2h2zm4 0h-2v-2h2zm4 0h-2v-2h2z"/><path d="m27 32v-16c0-.551-.448-1-1-1h-22c-.552 0-1 .449-1 1v16c0 .551.448 1 1 1h22c.552 0 1-.449 1-1zm-16.293-4.707-1.414 1.414-4.707-4.707 4.707-4.707 1.414 1.414-3.293 3.293zm3.241 3.023-1.896-.633 4-12 1.896.633zm6.759-1.609-1.414-1.414 3.293-3.293-3.293-3.293 1.414-1.414 4.707 4.707z"/><path d="m35 15h14v6h-14z"/><path d="m35 27h14v6h-14z"/><path d="m31.772 42.379h23.456v2.243h-23.456z" transform="matrix(.707 -.707 .707 .707 -18.018 43.499)"/><path d="m34.772 45.379h23.456v2.243h-23.456z" transform="matrix(.707 -.707 .707 .707 -19.261 46.5)"/><path d="m57.758 29c-.867 0-1.681.337-2.292.949h-.001l-3.051 3.051 4.586 4.586 3.051-3.051c.603-.603.949-1.438.949-2.292 0-1.788-1.454-3.243-3.242-3.243z"/><path d="m33.179 56.821 3.7-.528-3.172-3.172z"/></svg>