<?xml version="1.0" encoding="iso-8859-1"?>
<!-- Generator: Adobe Illustrator 21.0.0, SVG Export Plug-In . SVG Version: 6.00 Build 0)  -->
<svg xmlns="http://www.w3.org/2000/svg" xmlns:xlink="http://www.w3.org/1999/xlink" version="1.1" id="Capa_1" x="0px" y="0px" viewBox="0 0 512 512" style="enable-background:new 0 0 512 512;" xml:space="preserve" width="512" height="512">
<g>
	<path d="M331,0H61c-8.284,0-15,6.714-15,15v46h300V15C346,6.714,339.284,0,331,0z"/>
	<path d="M368.5,242c-12.426,0-22.5,10.073-22.5,22.5V317c0,8.284-6.716,15-15,15s-15-6.716-15-15v-52.5   c0-12.427-10.074-22.5-22.5-22.5S271,252.073,271,264.5V317c0,8.284-6.716,15-15,15s-15-6.716-15-15V173.5   c0-12.427-10.074-22.5-22.5-22.5S196,161.073,196,173.5v130.009c-34.189,6.973-60,37.266-60,73.491   c0,72.504,30.229,123.062,31.582,126.709C170.131,508.792,175.316,512,181,512h240c5.684,0,10.869-3.208,13.418-8.291   C455.072,462.386,466,416.126,466,369.925V294.5c0-12.427-10.074-22.5-22.5-22.5S421,282.073,421,294.5V317c0,8.284-6.716,15-15,15   s-15-6.716-15-15v-52.5C391,252.073,380.926,242,368.5,242z"/>
	<path d="M46,362h61.095c5.065-34.841,27.479-64.867,58.905-79.849V173.5c0-28.945,23.555-52.5,52.5-52.5s52.5,23.555,52.5,52.5   v43.568c6.826-3.252,14.458-5.068,22.5-5.068c14.678,0,27.964,6.05,37.5,15.791c4.286-4.378,9.413-7.872,15-10.543V91H46V362z"/>
	<path d="M46,437c0,8.284,6.716,15,15,15h54.798c-5.808-22.343-8.467-42.803-9.362-60H46V437z"/>
</g>















</svg>
