<svg id="Layer_1" enable-background="new 0 0 511.837 511.837" height="512" viewBox="0 0 511.837 511.837" width="512" xmlns="http://www.w3.org/2000/svg"><g><g><path d="m374.544 481.828h-40.23l-9.654-61.272-138.372-.306-10.804 61.578h-38.238c-8.284 0-15 6.716-15 15s6.716 15 15 15h237.298c8.284 0 15-6.716 15-15s-6.716-15-15-15z"/></g><g><path d="m273.063 179.937h36.558c3.948-19.938 16.513-36.866 33.71-46.869-6.192-8.761-9.837-19.394-9.837-30.855 0-29.85 24.649-54.135 54.947-54.135s54.947 24.285 54.947 54.135c0 11.461-3.645 22.094-9.837 30.855 17.197 10.003 29.761 26.931 33.71 46.869h44.578v-146.41c0-18.511-15.231-33.518-34.02-33.518h-204.756z"/><path d="m44.76 179.937c3.948-19.938 16.513-36.866 33.71-46.869-6.192-8.761-9.837-19.394-9.837-30.855 0-29.85 24.649-54.135 54.947-54.135 30.297 0 54.946 24.285 54.946 54.135 0 11.461-3.644 22.094-9.837 30.855 17.197 10.003 29.761 26.931 33.709 46.869h37.27v-179.928h-205.648c-18.789 0-34.02 15.007-34.02 33.518v146.41z"/><path d="m124.845 123.382c11.293-.651 20.286-9.882 20.286-21.169 0-11.708-9.668-21.234-21.552-21.234s-21.552 9.526-21.552 21.234c0 11.287 8.993 20.518 20.286 21.169z"/><path d="m389.705 123.382c11.293-.651 20.286-9.882 20.286-21.169 0-11.708-9.668-21.234-21.552-21.234s-21.552 9.526-21.552 21.234c0 11.287 8.993 20.518 20.286 21.169z"/><path d="m344.241 179.937h88.397c-5.47-13.828-19.133-23.653-35.08-23.653-5.14.012-11.874.029-18.237 0-15.947 0-29.61 9.825-35.08 23.653z"/><path d="m79.38 179.937h88.397c-5.47-13.828-19.133-23.653-35.08-23.653-5.14.012-11.875.029-18.237 0-15.946 0-29.61 9.825-35.08 23.653z"/><path d="m389.705 330.24c11.293-.651 20.286-9.883 20.286-21.171 0-11.708-9.668-21.234-21.552-21.234s-21.552 9.526-21.552 21.234c0 11.287 8.993 20.519 20.286 21.171z"/><path d="m344.241 386.794h88.397c-5.47-13.828-19.133-23.653-35.08-23.653-5.14.012-11.874.029-18.237 0-15.947 0-29.61 9.825-35.08 23.653z"/><path d="m273.063 212.839v174.016h36.541c3.937-19.961 16.512-36.917 33.727-46.93-6.193-8.761-9.837-19.395-9.837-30.856 0-29.85 24.649-54.135 54.947-54.135s54.947 24.285 54.947 54.135c0 11.462-3.645 22.095-9.837 30.856 17.214 10.013 29.79 26.969 33.727 46.93h10.542c18.789 0 34.02-15.006 34.02-33.518v-140.498z"/><path d="m79.38 386.794h88.397c-5.47-13.828-19.133-23.653-35.08-23.653-5.14.012-11.875.029-18.237 0-15.946 0-29.61 9.825-35.08 23.653z"/><path d="m124.845 330.24c11.293-.651 20.286-9.883 20.286-21.171 0-11.708-9.668-21.234-21.552-21.234s-21.552 9.526-21.552 21.234c0 11.287 8.993 20.519 20.286 21.171z"/><path d="m78.47 339.925c-6.193-8.761-9.837-19.395-9.837-30.856 0-29.85 24.649-54.135 54.947-54.135 30.297 0 54.946 24.285 54.946 54.135 0 11.462-3.644 22.095-9.837 30.856 17.214 10.013 29.79 26.969 33.727 46.93h37.253v-174.016h-239.669v140.499c0 18.512 15.231 33.518 34.02 33.518h10.723c3.937-19.962 16.513-36.918 33.727-46.931z"/></g></g></svg>